# xmcd
#
# Track frame offsets:
#	150
#	22847
#	37135
#	71114
#	88316
#	99691
#	117762
#	132717
#	149894
#	172401
#
# Disc length: 2485
#
# Revision: 1
# Processed by: cddbd v1.5.1PL0 Copyright (c) Steve Scherf et al.
# Submitted via: CDex 1.50beta10
# Normalized: r0:TDELIM( - )
#
DISCID=a309b30a
DTITLE=Various Artist - Moments Of Jazz
DYEAR=1900
DGENRE=Jazz
TTITLE0=Louis Armstrong, Ella Fitzgerald - Summertime
TTITLE1=Count Basie - Magic
TTITLE2=Art Blakey's Jazz Messengers - Whisper Not
TTITLE3=Billie Holiday - Lady Sings The Blues
TTITLE4=Miles Davis - Nuit sur les Champs-Elysees
TTITLE5=Sarah Vaughn - Lullaby Of Birdland
TTITLE6=Louis Armstrong - Let's Fall In Love
TTITLE7=Claude Bolling - Pinetop's Boogie Woogie
TTITLE8=Ella Fitzgerald - Mack The Knife
TTITLE9=Don Byas - Misty
EXTD=
EXTT0=
EXTT1=
EXTT2=
EXTT3=
EXTT4=
EXTT5=
EXTT6=
EXTT7=
EXTT8=
EXTT9=
PLAYORDER=
